<svg xmlns="http://www.w3.org/2000/svg" width="16" height="22" fill="none" viewBox="0 0 16 22"><path fill="#0047bb" d="m7.636 21.07.01.004zm-.147-.08.1.056zm.51-19.937q.145.001.222.032 1.01.39 7 2.712l.075.03c.167.069.263.123.305.16a.9.9 0 0 1 .245.381c.019.057.032.18.034.386v.093q-.006.399 0 5.62 0 1.005-.046 1.394c-.337 2.82-2.214 5.157-4.296 6.893a20 20 0 0 1-3.18 2.18l-.022.01a.7.7 0 0 1-.334.08.7.7 0 0 1-.356-.09 20 20 0 0 1-3.181-2.18c-2.05-1.708-3.901-3.998-4.28-6.76l-.017-.131Q.12 11.474.12 10.469q.004-4.57 0-5.446v-.175c-.003-.26.011-.413.033-.478a.9.9 0 0 1 .245-.38c.048-.044.167-.108.38-.191l4.744-1.84 2.255-.874A.6.6 0 0 1 8 1.053m.057 1.66a.15.15 0 0 0-.11 0L1.749 5.116a.14.14 0 0 0-.06.044l-.006.01a.15.15 0 0 0-.025.081l.001 3.578v1.175l-.001.766q-.001.6.033.893c.237 2.002 1.475 3.733 2.847 5.055v.001l.002.001a.13.13 0 0 0 .12.029.13.13 0 0 0 .09-.096 16 16 0 0 1 2.958-6.118l.002-.003.003-.004a.13.13 0 0 0 .022-.065v-.02a.14.14 0 0 0-.017-.056l-.005-.009-.006-.008a.1.1 0 0 0-.046-.036l-.009-.004-.009-.003a.12.12 0 0 0-.067 0h-.003l-.004.002a6.4 6.4 0 0 0-2.186 1.279l-.063.056a1.1 1.1 0 0 1-.373.231.27.27 0 0 1-.153.008.18.18 0 0 1-.096-.076l-.014-.021a.3.3 0 0 1-.03-.205q.027-.195.095-.338.387-.824 1.096-1.413a2.8 2.8 0 0 1 1.116-.571l.005-.002.005-.002a.13.13 0 0 0 .06-.044.13.13 0 0 0 .008-.146l-.006-.01-.007-.008a.13.13 0 0 0-.051-.037 9.7 9.7 0 0 0-3.23-.654l-.107-.002a6 6 0 0 0-.414.009q-.211.01-.407.008a1.6 1.6 0 0 1-.359-.041.5.5 0 0 1-.257-.138c-.078-.094-.085-.21-.017-.329.07-.122.194-.235.345-.335s.317-.18.464-.241c1.602-.67 3.71-.699 4.937.701q.243.277.443.565a.124.124 0 0 0 .169.04.13.13 0 0 0 .06-.08.14.14 0 0 0-.007-.09A6.7 6.7 0 0 0 6.769 5.99a.9.9 0 0 1-.232-.295c-.05-.11-.048-.2.015-.275q.096-.114.367-.079c.172.023.354.088.479.14q.54.223 1.006.601c.584.474 1.002 1.088 1.069 1.846l.005.074a.14.14 0 0 0 .069.113.13.13 0 0 0 .126.002q.134-.071.188-.102c.588-.34 1.247-.333 1.87-.115.624.219 1.204.646 1.619 1.13.077.09.152.195.196.303a.4.4 0 0 1 .02.294v.001l-.001.001a.24.24 0 0 1-.231.105 1 1 0 0 1-.348-.096l-.05-.025a6.2 6.2 0 0 0-2.04-.645l-.073-.01h-.014a.13.13 0 0 0-.062.018l-.009.006a.13.13 0 0 0-.05.071.14.14 0 0 0 .003.088q.016.043.055.067h.002l.002.002q.776.431 1.26 1.206l.045.074c.46.77.704 1.681.762 2.598a5 5 0 0 1-.027.922 1.7 1.7 0 0 1-.12.451q-.086.183-.203.23a.23.23 0 0 1-.198-.001.5.5 0 0 1-.185-.172 2 2 0 0 1-.25-.546 9.8 9.8 0 0 0-1.106-2.428l-.002-.004-.003-.003a.13.13 0 0 0-.054-.043l-.009-.003-.01-.003a.12.12 0 0 0-.124.043l-.006.008a.13.13 0 0 0-.023.076v.016c.128 1.027-.177 2.117-.707 2.993a3 3 0 0 1-.296.413 1 1 0 0 1-.359.273c-.125.047-.247-.006-.303-.138a.7.7 0 0 1-.041-.305 2 2 0 0 1 .05-.34 8.9 8.9 0 0 0 .115-3.601.13.13 0 0 0-.024-.061l-.007-.008-.007-.008a.1.1 0 0 0-.055-.032l-.01-.002-.01-.002a.1.1 0 0 0-.063.01l-.01.006a.13.13 0 0 0-.047.047c-1.397 2.342-2.044 5.047-1.684 7.792a.16.16 0 0 0 .074.115l.805.503a.15.15 0 0 0 .156.003c1.426-.846 2.777-1.885 3.914-3.107 1.131-1.215 2.08-2.718 2.313-4.427q.049-.368.044-1.124-.003-.326 0-5.38a.15.15 0 0 0-.02-.074l-.006-.009-.007-.009a.14.14 0 0 0-.059-.043zm-4 15.857q.117.103.235.202l.096.081q-.166-.139-.33-.283m5.07-3.126.015-.004.017-.005zm-.4-.204.007.013-.014-.03zm-2.336-2.986-.055.093zm2.298 2.408.014-.081v-.003zM.083 12.144l.01.059-.01-.057zm-.048-.376.005.058.006.053-.006-.053zm4.544.104-.009-.016zm-4.574-.733.005.185.007.167a14 14 0 0 1-.012-.352M14.222 5.25l-.001 3.872zm-2.088 4.148.072.027-.009-.004zm-1.035-.12-.047-.032zm-4.168-.123-.08.021zm4.142-.033.079.013.067.013zm-6.39-.547a9.6 9.6 0 0 1 2.147.534l.1.039a9.7 9.7 0 0 0-2.143-.559zM2.121 8.31l.016.016zm2.635-1.56a6 6 0 0 0-.257.026l-.085.011q.17-.023.342-.037m2.008-.6.071.064zm-.18-.167q.036.04.072.074l.036.032a1 1 0 0 1-.109-.106M6.4 5.436a.36.36 0 0 0-.003.235l.018.052.01.026a.42.42 0 0 1-.034-.288zm1.248.019-.068-.032zm-.853-.249a1 1 0 0 0-.13.014l-.03.007a.6.6 0 0 1 .16-.02M.028 4.365v.001zm15.91-.101.013.031zm-.598-.555.04.017-.116-.047zm-15.291.59-.01.03zm.223-.36"></path></svg>