<svg width="192" height="234" viewBox="0 0 192 234" fill="none" xmlns="http://www.w3.org/2000/svg">
<path d="M91.4627 233.3C91.5025 233.319 91.543 233.335 91.5829 233.353C91.5491 233.338 91.5146 233.324 91.4808 233.309L91.4627 233.3ZM89.6981 232.383L90.9011 233.025C90.2211 232.665 89.5427 232.301 88.8652 231.934C89.1427 232.084 89.4202 232.234 89.6981 232.383ZM95.8196 1.46682C96.977 1.46686 97.8436 1.61231 98.4681 1.84442V1.84336C106.54 4.85565 134.487 15.3258 182.31 33.2539L183.216 33.6038C185.209 34.3962 186.364 35.0224 186.862 35.4578L186.863 35.4589C188.216 36.6401 189.195 38.1011 189.803 39.87C190.029 40.5273 190.19 41.9589 190.203 44.3332L190.2 45.4096C190.165 48.4795 190.167 70.1894 190.207 110.511C190.216 118.277 190.026 123.635 189.653 126.651C185.62 159.316 163.133 186.372 138.203 206.48C125.977 216.34 113.276 224.754 100.101 231.723L99.8531 231.85C98.6091 232.46 97.278 232.766 95.843 232.766H95.8409C94.3111 232.769 92.9 232.421 91.5861 231.727H91.5851C78.4075 224.758 65.7056 216.346 53.4798 206.488H53.4787C28.9304 186.703 6.75374 160.179 2.21246 128.198L2.00929 126.672C1.63643 123.655 1.44547 118.296 1.45086 110.53C1.47914 75.2494 1.48167 54.2184 1.45831 47.4551L1.44661 45.4298C1.41124 42.4044 1.58507 40.6415 1.84336 39.8902L1.84442 39.8891C2.45048 38.1209 3.42687 36.6601 4.77912 35.4791L4.78018 35.478C5.34933 34.9804 6.77698 34.2335 9.33274 33.2741L66.1599 11.9611C80.1291 6.72409 89.1321 3.35109 93.1689 1.84336L93.17 1.84442C93.7945 1.61222 94.6619 1.46686 95.8196 1.46682ZM85.2009 229.903C86.2682 230.507 87.3384 231.103 88.4121 231.688C87.3384 231.103 86.2682 230.507 85.2009 229.903ZM79.1464 226.351C79.8445 226.775 80.5441 227.195 81.245 227.611C80.5441 227.195 79.8445 226.775 79.1464 226.351ZM72.0091 221.838C73.5215 222.833 75.041 223.807 76.567 224.761C75.041 223.807 73.5215 222.833 72.0091 221.838ZM62.8199 215.485C65.048 217.102 67.2912 218.673 69.5499 220.199C67.2912 218.673 65.0481 217.102 62.8199 215.485ZM55.9677 210.332C58.1545 212.036 60.3572 213.693 62.5742 215.306C60.3572 213.693 58.1545 212.036 55.9677 210.332ZM96.495 20.6918C96.0722 20.5312 95.6052 20.5308 95.1824 20.6918V20.6907L20.9364 48.5326C20.6573 48.636 20.4109 48.8116 20.2238 49.041L20.1472 49.1431C19.953 49.4225 19.8491 49.755 19.8494 50.0951L19.8589 91.5319C19.8586 96.8587 19.8569 101.396 19.8547 105.143L19.8451 114.014C19.8343 118.631 19.9613 122.092 20.2397 124.35V124.351C23.0811 147.544 37.9091 167.586 54.3381 182.901L54.352 182.913L54.3658 182.926C54.5547 183.093 54.7834 183.212 55.0306 183.271C55.2778 183.33 55.5424 183.329 55.7986 183.258C56.0564 183.187 56.2983 183.048 56.4932 182.847C56.681 182.653 56.8119 182.412 56.8772 182.15L56.8793 182.151C63.3597 156.235 75.1668 132.619 92.3116 111.295L92.3424 111.256L92.3711 111.215C92.5266 110.992 92.6197 110.732 92.6402 110.461L92.6445 110.344L92.6392 110.228C92.6212 109.997 92.5511 109.772 92.4328 109.572L92.3701 109.474L92.2999 109.382C92.1528 109.202 91.9658 109.059 91.7542 108.962L91.6457 108.919L91.5351 108.883C91.2744 108.81 90.9972 108.807 90.7341 108.877L90.6926 108.888L90.6512 108.902C81.0218 112.082 72.2895 117.023 64.4623 123.717L63.7071 124.37C62.4485 125.473 60.7729 126.608 59.246 127.042C58.4981 127.254 57.8878 127.269 57.4122 127.129C57.0289 127.016 56.6301 126.774 56.256 126.253L56.0964 126.011C55.7505 125.439 55.5855 124.682 55.7326 123.633C55.9438 122.125 56.3287 120.826 56.8676 119.719L56.8686 119.717C59.964 113.349 64.3344 107.898 69.9934 103.357C73.9625 100.171 78.4158 97.9672 83.366 96.7386L83.4288 96.7227L83.4905 96.7014C83.7753 96.6032 84.0197 96.4235 84.1978 96.1919C84.3763 95.9596 84.4944 95.6676 84.5105 95.3463C84.5247 95.0627 84.4585 94.7667 84.302 94.5028L84.2287 94.3921L84.1467 94.2868C83.9775 94.0907 83.763 93.9459 83.5287 93.8592H83.5298C70.9574 89.171 58.059 86.6449 44.8427 86.2858L43.5631 86.2582C41.9579 86.2311 40.2584 86.3009 38.6021 86.3667C36.9279 86.4331 35.2908 86.4958 33.7357 86.4645H33.7336C32.3666 86.4391 30.8203 86.3234 29.4321 85.9837C28.0164 85.6373 26.9569 85.1042 26.3495 84.3903C25.4177 83.2953 25.3326 81.9482 26.1485 80.5802L26.1495 80.5792C26.995 79.1583 28.4754 77.8507 30.2819 76.6935C32.071 75.5476 34.0735 74.6155 35.8365 73.9024C55.0307 66.1426 80.2729 65.8117 94.9708 82.0268V82.0258C96.9052 84.1608 98.6752 86.3435 100.282 88.5727C100.486 88.8683 100.789 89.0837 101.138 89.179C101.53 89.2859 101.949 89.2326 102.302 89.0312C102.654 88.8296 102.913 88.4957 103.02 88.1037C103.115 87.7553 103.082 87.3867 102.932 87.0612H102.933C97.8379 75.8603 90.551 66.3837 81.0833 58.6482C80.0764 57.8236 78.9172 56.5493 78.305 55.2348C77.7092 53.9553 77.7268 52.9186 78.4795 52.048L78.4805 52.0491C79.2306 51.1832 80.7192 50.8602 82.8799 51.1386C84.9411 51.4043 87.1159 52.1578 88.6068 52.7533C92.9141 54.4731 96.9318 56.7936 100.66 59.7183C107.661 65.2104 112.667 72.3178 113.466 81.1004L113.53 81.9556C113.546 82.2238 113.628 82.4845 113.771 82.7129C113.914 82.9412 114.113 83.1301 114.348 83.2618C114.583 83.3932 114.848 83.4634 115.117 83.466C115.378 83.4684 115.635 83.4049 115.867 83.2852L115.868 83.2873C116.933 82.7386 117.688 82.3404 118.112 82.1024L118.111 82.1013C125.162 78.1638 133.055 78.2488 140.517 80.7738C147.993 83.304 154.935 88.2592 159.904 93.8656V93.8667C160.825 94.9062 161.72 96.1184 162.252 97.3641C162.779 98.5994 162.897 99.7377 162.491 100.77L162.487 100.78L162.484 100.789C162.482 100.793 162.479 100.798 162.475 100.803L162.471 100.809C161.755 101.74 160.892 102.119 159.707 102.012H159.706C158.315 101.889 156.928 101.521 155.54 100.898L154.945 100.615C147.262 96.7503 139.116 94.2609 130.517 93.1455L129.64 93.0359L129.597 93.0338L129.467 93.0317C129.208 93.0381 128.954 93.1087 128.73 93.238L128.62 93.3082C128.335 93.5064 128.124 93.7944 128.021 94.1262C127.919 94.4585 127.932 94.8158 128.057 95.1399C128.181 95.4643 128.412 95.7384 128.711 95.9164L128.738 95.9323L128.767 95.9483C134.963 99.275 139.987 103.924 143.852 109.914L144.394 110.773C149.912 119.695 152.83 130.242 153.518 140.856C153.673 143.251 153.789 147.574 153.197 151.539C152.9 153.525 152.436 155.342 151.76 156.762C151.079 158.189 150.261 159.058 149.334 159.433C148.409 159.808 147.649 159.736 146.955 159.413C146.205 159.064 145.455 158.38 144.737 157.415C143.296 155.48 142.283 152.821 141.746 151.092C138.656 141.133 134.237 131.759 128.495 122.973L128.469 122.934L128.441 122.896C128.274 122.674 128.051 122.503 127.796 122.401L127.684 122.362L127.57 122.331C127.302 122.27 127.02 122.283 126.758 122.37C126.495 122.458 126.262 122.617 126.085 122.826L126.012 122.919C125.828 123.175 125.727 123.484 125.727 123.801V123.894L125.74 123.988C127.268 135.875 123.617 148.501 117.267 158.652C116.287 160.217 115.087 161.948 113.723 163.429C112.347 164.924 110.892 166.068 109.424 166.597C107.918 167.136 106.455 166.528 105.788 164.997L105.787 164.995C105.388 164.08 105.241 162.847 105.298 161.46C105.354 160.094 105.602 158.695 105.891 157.528C109.307 143.802 109.767 129.893 107.276 115.814C107.241 115.558 107.141 115.317 106.986 115.112L106.905 115.014L106.817 114.922C106.632 114.748 106.407 114.623 106.161 114.558L106.036 114.531L105.91 114.515C105.657 114.493 105.402 114.534 105.169 114.636L105.056 114.691C104.819 114.819 104.622 115.008 104.483 115.235C87.7511 142.363 80.0054 173.689 84.3148 205.483C84.3526 205.763 84.4544 206.028 84.6084 206.259C84.7615 206.489 84.9633 206.68 85.1955 206.82V206.821L94.8421 212.649V212.65C95.1245 212.822 95.4477 212.913 95.776 212.917C96.1039 212.921 96.426 212.836 96.7088 212.675L96.7099 212.673C113.794 202.881 129.97 190.85 143.596 176.694C157.138 162.626 168.51 145.216 171.297 125.42C171.696 122.585 171.864 118.228 171.821 112.406C171.802 109.88 171.8 89.1143 171.813 50.0909V50.0898C171.813 49.7895 171.731 49.4955 171.579 49.2389L171.51 49.1314L171.432 49.0293C171.246 48.8029 171.002 48.629 170.726 48.5262H170.727L96.4961 20.6907L96.495 20.6918ZM48.5953 204.357C49.528 205.145 50.464 205.925 51.4045 206.693L52.5586 207.631C51.2301 206.56 49.9089 205.467 48.5953 204.357ZM41.2783 197.867C40.8841 197.5 40.4912 197.131 40.0997 196.76C40.4912 197.131 40.8841 197.5 41.2783 197.867ZM118.237 196.894C117.717 197.278 117.196 197.662 116.673 198.041C117.196 197.662 117.717 197.278 118.237 196.894ZM84.8264 195.524C84.8504 195.936 84.8761 196.348 84.9041 196.76C84.8761 196.348 84.8504 195.936 84.8264 195.524ZM84.6882 192.55C84.7002 192.896 84.7126 193.243 84.7275 193.59C84.7126 193.243 84.7002 192.896 84.6882 192.55ZM84.9605 178.623C84.9432 178.856 84.9265 179.09 84.9105 179.324C84.9265 179.09 84.9432 178.856 84.9605 178.623ZM143.795 174.355C143.379 174.799 142.959 175.239 142.539 175.677C142.96 175.239 143.378 174.799 143.795 174.355ZM45.4787 171.762C46.1556 172.523 46.8414 173.274 47.5327 174.018C46.8414 173.274 46.1556 172.523 45.4787 171.762ZM146.2 171.726C145.522 172.486 144.835 173.237 144.143 173.98C144.835 173.237 145.522 172.486 146.2 171.726ZM147.427 170.328C147.28 170.498 147.131 170.667 146.983 170.837C147.131 170.667 147.28 170.498 147.427 170.328ZM43.0036 168.901C43.2732 169.222 43.5447 169.541 43.8173 169.859C43.5447 169.541 43.2732 169.222 43.0036 168.901ZM59.697 167.344L59.698 167.343L59.697 167.344ZM148.597 168.96C148.419 169.172 148.239 169.382 148.059 169.592C148.239 169.382 148.419 169.172 148.597 168.96ZM149.773 167.547C149.571 167.793 149.367 168.037 149.163 168.282C149.367 168.037 149.571 167.793 149.773 167.547ZM108.688 168.244C108.558 168.253 108.43 168.258 108.302 168.256C108.43 168.258 108.558 168.253 108.688 168.244ZM109.333 168.147C109.391 168.134 109.449 168.12 109.507 168.105L109.709 168.048C109.584 168.087 109.458 168.119 109.333 168.147ZM105.342 166.956C105.259 166.869 105.179 166.779 105.102 166.683C105.179 166.779 105.259 166.869 105.342 166.956ZM150.895 166.156C150.726 166.368 150.555 166.578 150.384 166.789C150.555 166.578 150.726 166.368 150.895 166.156ZM104.535 165.782C104.56 165.832 104.585 165.881 104.611 165.929C104.552 165.817 104.495 165.702 104.443 165.582L104.535 165.782ZM152.017 164.721C151.848 164.94 151.676 165.157 151.505 165.376C151.676 165.157 151.848 164.94 152.017 164.721ZM103.965 163.896C104.01 164.164 104.063 164.426 104.131 164.68C104.063 164.426 104.01 164.164 103.965 163.896ZM153.146 163.231C152.923 163.53 152.697 163.825 152.472 164.121C152.697 163.825 152.923 163.53 153.146 163.231ZM76.5467 131.199C71.3276 139.799 66.8637 148.727 63.155 157.98C63.0005 158.366 62.8474 158.752 62.6955 159.138C62.3916 159.912 62.0932 160.688 61.7999 161.466C65.6131 151.353 70.312 141.622 75.8979 132.275L76.5467 131.199ZM116.233 162.721C115.96 163.072 115.679 163.421 115.388 163.761C115.679 163.421 115.96 163.072 116.233 162.721ZM154.208 161.782C154.002 162.067 153.793 162.351 153.584 162.635C153.793 162.351 154.002 162.067 154.208 161.782ZM155.269 160.284C155.066 160.575 154.861 160.863 154.656 161.152C154.861 160.863 155.066 160.575 155.269 160.284ZM35.7748 159.388V159.389V159.388ZM156.248 158.852C156.091 159.087 155.93 159.32 155.771 159.553C155.93 159.32 156.091 159.087 156.248 158.852ZM104.074 159.093C104.126 158.769 104.186 158.453 104.248 158.147L104.255 158.115C104.189 158.431 104.128 158.758 104.074 159.093ZM157.251 157.332C157.111 157.549 156.969 157.764 156.827 157.98C156.969 157.764 157.111 157.549 157.251 157.332ZM158.207 155.83C158.16 155.905 158.114 155.98 158.067 156.055C158.114 155.98 158.16 155.905 158.207 155.83ZM141.75 155.186C141.402 154.441 141.103 153.703 140.853 153.024C141.103 153.703 141.402 154.441 141.75 155.186ZM159.186 154.225C159.138 154.307 159.088 154.388 159.039 154.469C159.088 154.388 159.138 154.307 159.186 154.225ZM89.6598 152.24C89.5043 152.788 89.3531 153.336 89.2046 153.885C89.3531 153.336 89.5043 152.788 89.6598 152.24ZM159.716 153.328C159.639 153.46 159.561 153.593 159.483 153.725C159.561 153.593 159.639 153.46 159.716 153.328ZM160.12 152.625C160.037 152.77 159.955 152.915 159.871 153.059C159.955 152.915 160.037 152.77 160.12 152.625ZM106.468 146.84C106.204 148.743 105.882 150.642 105.504 152.537C105.882 150.642 106.204 148.743 106.468 146.84ZM160.991 151.065C160.896 151.239 160.801 151.414 160.705 151.587C160.801 151.414 160.896 151.239 160.991 151.065ZM161.424 150.265C161.36 150.385 161.296 150.505 161.232 150.625C161.296 150.505 161.36 150.385 161.424 150.265ZM161.806 149.541C161.766 149.617 161.727 149.693 161.687 149.77C161.727 149.693 161.766 149.617 161.806 149.541ZM90.7831 148.494C90.6959 148.771 90.6089 149.047 90.5235 149.324C90.6089 149.047 90.6959 148.771 90.7831 148.494ZM162.268 148.644C162.202 148.773 162.136 148.902 162.07 149.031C162.136 148.902 162.202 148.773 162.268 148.644ZM162.656 147.869C162.591 148.001 162.525 148.133 162.459 148.264C162.525 148.133 162.591 148.001 162.656 147.869ZM163.098 146.962C163.017 147.132 162.935 147.301 162.853 147.47C162.935 147.301 163.017 147.132 163.098 146.962ZM106.618 145.709H106.619H106.618ZM163.441 146.24C163.379 146.371 163.318 146.503 163.256 146.634C163.318 146.503 163.379 146.371 163.441 146.24ZM163.821 145.419C163.755 145.563 163.69 145.707 163.624 145.851C163.69 145.707 163.755 145.563 163.821 145.419ZM164.162 144.663C164.112 144.776 164.062 144.888 164.011 145.001C164.062 144.888 164.112 144.776 164.162 144.663ZM164.542 143.795C164.493 143.908 164.445 144.021 164.396 144.133C164.445 144.021 164.493 143.908 164.542 143.795ZM92.9647 142.12C92.7224 142.775 92.4852 143.432 92.2531 144.091C92.4852 143.432 92.7224 142.775 92.9647 142.12ZM164.909 142.929C164.847 143.077 164.786 143.224 164.724 143.371C164.786 143.224 164.847 143.077 164.909 142.929ZM107.367 135.478C107.35 136.325 107.323 137.171 107.284 138.017C107.264 138.445 107.241 138.874 107.216 139.302C107.165 140.158 107.103 141.013 107.029 141.867C107.212 139.742 107.324 137.612 107.367 135.478ZM165.285 142.01C165.222 142.168 165.158 142.325 165.094 142.482C165.158 142.325 165.222 142.168 165.285 142.01ZM165.609 141.194C165.544 141.361 165.478 141.528 165.412 141.695C165.478 141.528 165.544 141.361 165.609 141.194ZM130.799 129.55C131.117 130.108 131.432 130.668 131.74 131.231C132.048 131.793 132.352 132.357 132.65 132.924C132.948 133.491 133.24 134.061 133.528 134.632C133.96 135.489 134.38 136.351 134.789 137.218C135.197 138.085 135.594 138.957 135.98 139.835C134.437 136.325 132.71 132.897 130.799 129.55ZM165.91 140.408C165.853 140.559 165.796 140.71 165.739 140.86C165.796 140.71 165.853 140.559 165.91 140.408ZM2.90066 138.884C2.76714 138.384 2.6376 137.883 2.51241 137.38C2.6376 137.883 2.76714 138.384 2.90066 138.884ZM166.543 138.67C166.484 138.836 166.425 139.002 166.366 139.168C166.425 139.002 166.484 138.836 166.543 138.67ZM166.871 137.711C166.799 137.926 166.726 138.141 166.652 138.356C166.726 138.141 166.799 137.926 166.871 137.711ZM167.135 136.905C167.069 137.11 167.003 137.316 166.935 137.52C167.003 137.316 167.069 137.11 167.135 136.905ZM167.671 135.174C167.607 135.39 167.543 135.607 167.477 135.823C167.543 135.607 167.607 135.39 167.671 135.174ZM168.155 133.46C168.059 133.818 167.96 134.174 167.858 134.53C167.96 134.174 168.059 133.818 168.155 133.46ZM1.52106 132.92C1.5428 133.031 1.56699 133.142 1.58914 133.253C1.56699 133.142 1.5428 133.031 1.52106 132.92ZM107.213 127.703C107.316 129.428 107.373 131.15 107.385 132.869C107.373 131.15 107.316 129.428 107.213 127.703ZM169.549 127.116C169.248 128.882 168.877 130.628 168.442 132.355C168.877 130.628 169.248 128.882 169.549 127.116ZM1.23919 131.407C1.27886 131.631 1.32229 131.853 1.36364 132.076C1.32229 131.853 1.27886 131.631 1.23919 131.407ZM190.421 131.407C190.398 131.538 190.372 131.667 190.348 131.798C190.372 131.667 190.398 131.538 190.421 131.407ZM0.989223 129.924C1.02554 130.151 1.06606 130.378 1.1041 130.604C1.06741 130.386 1.02749 130.168 0.992414 129.949L0.989223 129.924ZM97.9959 130.197C97.9439 130.306 97.8944 130.416 97.8427 130.525C97.8944 130.416 97.9439 130.306 97.9959 130.197ZM90.3618 111.384C85.8179 117.111 81.654 123.002 77.8678 129.055C81.6539 123.002 85.8179 117.111 90.3618 111.384ZM60.3384 128.221C60.3433 128.22 60.3483 128.218 60.3533 128.216C60.3483 128.218 60.3433 128.22 60.3384 128.221ZM54.954 126.948C55.0878 127.151 55.2299 127.332 55.3774 127.496C55.2298 127.332 55.0878 127.151 54.954 126.948ZM128.827 126.23H128.828H128.827ZM0.418027 125.574C0.439051 125.805 0.461428 126.027 0.483975 126.24L0.553114 126.851C0.529038 126.657 0.505462 126.453 0.482911 126.24L0.418027 125.574ZM54.8423 126.771C54.5286 126.252 54.3323 125.673 54.2531 125.033C54.3237 125.602 54.4867 126.122 54.7423 126.595L54.8423 126.771ZM107.023 125.116L107.024 125.114L107.023 125.116ZM21.6512 123.762C21.6382 123.642 21.6231 123.518 21.6108 123.391C21.6231 123.518 21.6382 123.642 21.6512 123.762ZM21.5629 122.824C21.5529 122.702 21.5426 122.577 21.5332 122.449C21.5426 122.577 21.5529 122.702 21.5629 122.824ZM0.0595661 118.283C0.0772274 119.036 0.0985542 119.753 0.122323 120.433L0.202099 122.365C0.142396 121.15 0.0948456 119.789 0.0595661 118.283ZM21.4949 121.879C21.4862 121.741 21.4774 121.601 21.4693 121.459C21.4774 121.601 21.4862 121.741 21.4949 121.879ZM21.431 120.708C21.4269 120.617 21.4233 120.526 21.4193 120.433C21.4233 120.526 21.4269 120.617 21.431 120.708ZM104.184 118.572C103.779 119.26 103.38 119.951 102.986 120.644C103.38 119.951 103.779 119.26 104.184 118.572ZM21.3864 119.576C21.3814 119.427 21.377 119.276 21.3725 119.123C21.377 119.276 21.3814 119.427 21.3864 119.576ZM21.3523 118.374C21.3492 118.234 21.3466 118.093 21.3438 117.951C21.3466 118.093 21.3492 118.234 21.3523 118.374ZM170.346 50.0898C170.333 89.1062 170.335 109.882 170.354 112.416C170.344 111.149 170.339 105.322 170.338 94.9357L170.346 50.0898ZM159.577 103.474C159.787 103.493 159.992 103.498 160.191 103.494C159.992 103.498 159.787 103.493 159.577 103.474C159.402 103.458 159.227 103.438 159.053 103.415C159.228 103.438 159.402 103.458 159.577 103.474ZM156.813 102.936C157.119 103.028 157.426 103.11 157.733 103.18C157.426 103.11 157.119 103.028 156.813 102.936ZM145.334 98.131C145.625 98.2324 145.915 98.3365 146.205 98.4416C146.168 98.4282 146.131 98.4145 146.094 98.4011L145.334 98.131ZM132.944 96.7386C133.13 96.8624 133.315 96.9877 133.499 97.1141C133.132 96.8612 132.759 96.6138 132.381 96.3716L132.944 96.7386ZM83.0129 95.3143C81.518 95.6853 80.0673 96.1452 78.6582 96.6876C79.7632 96.2622 80.8935 95.8864 82.0513 95.5664L83.0129 95.3143ZM139.14 96.2738C139.63 96.3977 140.119 96.5273 140.606 96.661C140.119 96.5273 139.63 96.3977 139.14 96.2738ZM135.975 95.5473C136.538 95.6638 137.099 95.7872 137.658 95.9164C137.099 95.7872 136.538 95.6638 135.975 95.5473ZM130.251 95.091C130.537 95.2524 130.821 95.4164 131.103 95.5835C130.821 95.4164 130.537 95.2524 130.251 95.091ZM132.638 94.9357C132.95 94.9858 133.262 95.0371 133.573 95.091L134.376 95.2346C133.799 95.1281 133.219 95.029 132.638 94.9357ZM56.0922 88.6025C64.8106 89.6841 73.3847 91.7474 81.8141 94.7921L83.0171 95.2335C74.6016 92.0954 66.0411 89.9393 57.3367 88.7642L56.0922 88.6025ZM131.034 94.6953C131.11 94.7059 131.186 94.7164 131.263 94.7272C131.186 94.7164 131.11 94.7059 131.034 94.6953ZM46.0648 87.7941C47.7468 87.8577 49.4235 87.9561 51.095 88.0909C49.4235 87.9561 47.7468 87.8577 46.0648 87.7941ZM32.2497 87.8675C32.4943 87.8842 32.7355 87.898 32.972 87.9079C32.7355 87.898 32.4943 87.8841 32.2497 87.8675ZM26.4123 86.3422C26.6974 86.5214 27.0032 86.68 27.3238 86.8219C27.0031 86.68 26.6975 86.5213 26.4123 86.3422ZM25.4071 85.5338C25.6912 85.8306 26.0188 86.0907 26.3782 86.3199C26.0948 86.1392 25.8311 85.94 25.5932 85.7178L25.4071 85.5338ZM100.659 85.6785C100.666 85.6916 100.672 85.7047 100.678 85.7178C100.672 85.7047 100.666 85.6916 100.659 85.6785ZM100.149 84.6499C100.209 84.7683 100.267 84.8874 100.326 85.0062C100.267 84.8874 100.209 84.7683 100.149 84.6499ZM99.6403 83.6617C99.7307 83.8344 99.8191 84.0083 99.9084 84.1819C99.8191 84.0083 99.7307 83.8344 99.6403 83.6617ZM99.1095 82.665C99.221 82.8709 99.3305 83.078 99.4404 83.2852C99.3305 83.078 99.221 82.8709 99.1095 82.665ZM98.6022 81.7439C98.7027 81.9237 98.8018 82.1045 98.9011 82.2853C98.8018 82.1045 98.7027 81.9237 98.6022 81.7439ZM98.0427 80.76C98.1428 80.9331 98.2416 81.1071 98.3405 81.2812C98.2416 81.1071 98.1428 80.9331 98.0427 80.76ZM97.5247 79.8771C97.5858 79.9796 97.6459 80.0828 97.7066 80.1856C97.6459 80.0828 97.5858 79.9796 97.5247 79.8771ZM96.9311 78.8975C97.0263 79.0518 97.12 79.2072 97.2141 79.3623C97.12 79.2072 97.0263 79.0518 96.9311 78.8975ZM25.9251 78.4167C25.9922 78.3402 26.0608 78.2644 26.1304 78.1891C26.0608 78.2644 25.9921 78.3402 25.9251 78.4167ZM96.3142 77.9136C96.4429 78.1156 96.5702 78.3186 96.6971 78.522C96.5702 78.3186 96.4429 78.1156 96.3142 77.9136ZM26.9792 77.3509C27.0646 77.2737 27.151 77.197 27.2387 77.1211C27.151 77.197 27.0646 77.2737 26.9792 77.3509ZM95.7653 77.0658C95.8889 77.2541 96.0114 77.4432 96.1334 77.6328C96.0114 77.4432 95.8889 77.2541 95.7653 77.0658ZM95.1452 76.1362C95.2503 76.2914 95.3549 76.447 95.459 76.6031C95.3549 76.447 95.2504 76.2914 95.1452 76.1362ZM28.9662 75.8064C28.5977 76.0567 28.2382 76.3155 27.8929 76.585C28.2382 76.3155 28.5977 76.0567 28.9662 75.8064ZM94.5336 75.2469C94.6555 75.4216 94.7768 75.5967 94.8974 75.7724C94.7768 75.5967 94.6555 75.4216 94.5336 75.2469ZM93.8996 74.3524C94.0198 74.5192 94.1393 74.6866 94.2581 74.8544C94.1393 74.6866 94.0198 74.5192 93.8996 74.3524ZM93.2465 73.46C93.395 73.6599 93.5425 73.8605 93.689 74.062C93.5425 73.8605 93.395 73.6599 93.2465 73.46ZM92.6136 72.6186C92.7532 72.8012 92.8916 72.9846 93.0295 73.1685C92.8916 72.9846 92.7532 72.8011 92.6136 72.6186ZM45.8074 69.1914C42.8271 69.9003 39.9183 70.7888 37.1289 71.8283C39.9183 70.7888 42.8271 69.9003 45.8074 69.1914ZM91.8893 71.6879C92.0514 71.8932 92.2132 72.0988 92.3733 72.3059C92.2132 72.0988 92.0514 71.8932 91.8893 71.6879ZM91.2096 70.839C91.3838 71.0533 91.5568 71.2686 91.7287 71.4847C91.5568 71.2686 91.3838 71.0533 91.2096 70.839ZM0.00531841 66.0482C0.00527075 67.6734 0.00464366 69.393 0.00425472 71.2071C0.00464634 69.393 0.00526807 67.6734 0.00531841 66.0482ZM90.4831 69.9594C90.6705 70.1828 90.8568 70.4071 91.0415 70.6327C90.8568 70.4072 90.6705 70.1828 90.4831 69.9594ZM89.9119 69.2871C90.0468 69.4442 90.1815 69.6013 90.315 69.7594C90.1815 69.6013 90.0468 69.4442 89.9119 69.2871ZM89.0982 68.3543C89.2603 68.5369 89.4219 68.7201 89.5822 68.9042C89.4218 68.7201 89.2603 68.5369 89.0982 68.3543ZM51.8491 68.0203C51.1705 68.1219 50.4938 68.2334 49.8196 68.3543C50.4938 68.2334 51.1705 68.1219 51.8491 68.0203ZM88.3728 67.5491C88.5352 67.7268 88.6972 67.9049 88.8578 68.0841C88.6972 67.9049 88.5352 67.7268 88.3728 67.5491ZM56.9665 67.4459C55.9391 67.5222 54.9132 67.6232 53.8903 67.7459L52.8681 67.8756C54.229 67.6921 55.5965 67.5476 56.9665 67.4459ZM86.8049 65.8855C87.0272 66.1145 87.2484 66.3443 87.4676 66.5758C87.2484 66.3443 87.0272 66.1145 86.8049 65.8855ZM85.404 64.4782C85.5701 64.6407 85.7364 64.8027 85.9008 64.9665C85.7364 64.8027 85.5701 64.6407 85.404 64.4782ZM84.7371 63.8336C84.8536 63.9449 84.9703 64.0557 85.086 64.1676C84.9703 64.0557 84.8536 63.9449 84.7371 63.8336ZM83.8266 62.9784C83.981 63.1213 84.1362 63.2632 84.2893 63.4071C84.1362 63.2632 83.981 63.1213 83.8266 62.9784ZM82.8384 62.0775C83.0582 62.2739 83.2765 62.4715 83.4936 62.67C83.2765 62.4715 83.0582 62.2739 82.8384 62.0775ZM81.0206 60.5011C81.5901 60.9798 82.1515 61.4654 82.7044 61.9573C82.4294 61.7126 82.1517 61.4701 81.8726 61.2287L81.0206 60.5011ZM78.8549 58.5578C79.1455 58.8709 79.4416 59.1601 79.7303 59.4194L80.1558 59.7853C79.7386 59.4437 79.2906 59.0273 78.8549 58.5578ZM0 53.083C0.00199953 54.9545 0.00343863 57.1538 0.00425472 59.681C0.0034432 57.1538 0.00199635 54.9545 0 53.083ZM191.644 57.6377C191.645 56.0366 191.646 54.5882 191.647 53.2926C191.646 54.5882 191.645 56.0366 191.644 57.6377ZM77.1211 56.1496C77.3518 56.5956 77.6277 57.0276 77.9285 57.4377C77.6274 57.0272 77.3509 56.595 77.1201 56.1485L77.1211 56.1496ZM76.6701 52.231C76.3619 53.0157 76.3555 53.8386 76.5489 54.6509C76.5731 54.7525 76.6005 54.8539 76.6308 54.9551C76.6912 55.1571 76.7635 55.3579 76.8456 55.5571L76.9754 55.855C76.4697 54.7693 76.2456 53.6178 76.568 52.5267L76.6701 52.231ZM91.617 52.4533C92.3358 52.7863 93.0454 53.1381 93.7475 53.5053C92.7813 53.0001 91.8 52.5259 90.8022 52.0853L91.617 52.4533ZM78.8017 50.0547C78.4724 50.1978 78.1662 50.3772 77.888 50.5961C77.8418 50.6325 77.7966 50.6702 77.7519 50.7089C77.6176 50.8251 77.49 50.9513 77.3711 51.0886C77.2917 51.1804 77.2184 51.2736 77.1499 51.3673C77.2184 51.2736 77.2917 51.1804 77.3711 51.0886C77.7676 50.6309 78.253 50.293 78.8017 50.0547ZM86.5624 50.4749C86.9525 50.5947 87.3292 50.719 87.6867 50.844C87.3292 50.7191 86.9525 50.5947 86.5624 50.4749ZM83.1192 49.6909C83.3826 49.7258 83.647 49.7665 83.9106 49.8143C83.647 49.7665 83.3826 49.7258 83.1192 49.6909ZM81.4078 49.575C81.1381 49.5769 80.8726 49.5893 80.6132 49.6143C80.4832 49.6269 80.3549 49.6434 80.2281 49.6622C80.1016 49.681 79.9767 49.7027 79.8537 49.7282L79.49 49.8154C80.085 49.6527 80.7328 49.5796 81.4078 49.575ZM0.337187 39.8285C0.28937 40.026 0.247923 40.2477 0.209545 40.4933C0.246855 40.2543 0.28666 40.0379 0.332932 39.8444L0.337187 39.8285ZM1.17324 37.732C0.999815 38.0663 0.840756 38.4116 0.696711 38.768C0.84077 38.4116 0.999794 38.0663 1.17324 37.732ZM190.912 38.6563L191.056 39.0211C190.975 38.8057 190.887 38.5948 190.795 38.3872C190.834 38.4764 190.874 38.5657 190.912 38.6563ZM2.31989 35.9482C2.38985 35.8589 2.46099 35.7705 2.53369 35.6833C2.461 35.7705 2.38984 35.8589 2.31989 35.9482ZM2.76876 35.4089C2.85731 35.3093 2.94769 35.211 3.04 35.1142C2.9477 35.211 2.8573 35.3093 2.76876 35.4089ZM183.737 32.2317C183.905 32.2985 184.068 32.3672 184.227 32.4327C183.794 32.2545 183.327 32.0689 182.826 31.8807L183.737 32.2317ZM98.9798 0.469083C99.9296 0.823507 101.154 1.2835 102.654 1.84442C101.153 1.28341 99.9286 0.82353 98.9787 0.469083C98.9259 0.449441 98.8716 0.432182 98.817 0.413772C98.8717 0.432226 98.9268 0.449388 98.9798 0.469083ZM95.8196 0C94.5537 3.90681e-05 93.4998 0.156691 92.6594 0.469083C93.4999 0.156651 94.5535 0 95.8196 0ZM55.8933 210.274C55.9181 210.293 55.9428 210.313 55.9677 210.332C55.9428 210.313 55.9181 210.293 55.8933 210.274ZM42.2377 198.755C41.9171 198.46 41.5973 198.164 41.2783 197.867C41.5973 198.164 41.9171 198.46 42.2377 198.755ZM108.886 168.224C108.825 168.232 108.764 168.238 108.703 168.242C108.764 168.238 108.825 168.232 108.886 168.224ZM105.468 167.085C105.434 167.052 105.4 167.018 105.366 166.983C105.4 167.018 105.434 167.052 105.468 167.085ZM87.6931 160.036C87.6695 160.143 87.644 160.249 87.6207 160.355C87.644 160.249 87.6696 160.143 87.6931 160.036ZM104.023 159.433C104.039 159.319 104.055 159.205 104.074 159.093C104.055 159.205 104.039 159.319 104.023 159.433ZM141.864 155.422C141.826 155.343 141.787 155.265 141.75 155.186C141.787 155.265 141.826 155.343 141.864 155.422ZM160.623 151.732C160.493 151.966 160.362 152.2 160.23 152.433C160.362 152.2 160.493 151.966 160.623 151.732ZM3.14743 139.778C3.06463 139.48 2.98052 139.183 2.90066 138.884C2.98052 139.183 3.06463 139.48 3.14743 139.778ZM167.416 136.019C167.345 136.248 167.274 136.477 167.201 136.705C167.274 136.477 167.345 136.248 167.416 136.019ZM98.6617 128.821C98.6459 128.854 98.6297 128.886 98.6139 128.918C98.6297 128.886 98.6459 128.854 98.6617 128.821ZM25.2763 79.2347C25.2122 79.3249 25.1493 79.4153 25.089 79.507C25.1493 79.4153 25.2122 79.3249 25.2763 79.2347ZM25.7166 78.6624C25.7847 78.5799 25.854 78.4979 25.9251 78.4167C25.854 78.4979 25.7847 78.5799 25.7166 78.6624ZM26.4857 77.821C26.5536 77.7533 26.6222 77.6857 26.692 77.6189C26.6222 77.6857 26.5536 77.7533 26.4857 77.821ZM26.7133 77.5977C26.8005 77.5146 26.8892 77.4324 26.9792 77.3509C26.8892 77.4324 26.8005 77.5146 26.7133 77.5977ZM87.5909 66.7066C87.7806 66.908 87.9696 67.1097 88.1568 67.3129C87.9696 67.1097 87.7806 66.908 87.5909 66.7066ZM86.1007 65.1686C86.3015 65.3701 86.5013 65.5724 86.6996 65.7759C86.5013 65.5724 86.3015 65.3701 86.1007 65.1686ZM0.581834 39.0648L0.456319 39.4136C0.496916 39.2952 0.539281 39.1777 0.582897 39.0616C0.582503 39.0626 0.582227 39.0637 0.581834 39.0648ZM0.582897 39.0616C0.619918 38.963 0.657514 38.865 0.696711 38.768C0.657518 38.865 0.619916 38.963 0.582897 39.0616ZM2.16353 36.1535C2.21503 36.0846 2.26682 36.0159 2.31989 35.9482C2.26682 36.0159 2.21502 36.0846 2.16353 36.1535ZM3.25274 34.8973L3.26976 34.8813C3.19214 34.9582 3.11513 35.0355 3.04 35.1142C3.10979 35.0411 3.1808 34.9688 3.25274 34.8973ZM2.61346 35.5897C2.66496 35.5293 2.71593 35.4683 2.76876 35.4089C2.71593 35.4683 2.66496 35.5293 2.61346 35.5897Z" fill="#0047BB"></path>
</svg>