<svg xmlns="http://www.w3.org/2000/svg" width="81" height="23" fill="none" viewBox="0 0 81 23"><path fill="#0047bb" d="m42.78.003-.996.002a1.91 1.91 0 0 0-1.904 1.912l.002.995a1.91 1.91 0 0 0 1.91 1.905l.996-.002a1.91 1.91 0 0 0 1.904-1.911l-.002-.996A1.91 1.91 0 0 0 42.78.003m16.19 19.41c-1.002 2.257-2.797 3.4-5.215 3.48-3.919.134-6.301-2.383-6.878-6.118-.671-4.343.313-9.692 5.536-10.505 1.565-.243 3.527-.036 4.83.933.746.555 1.168 1.14 1.609 1.888a.04.04 0 0 0 .073-.02v-7.88a.09.09 0 0 1 .089-.09h3.344a.115.115 0 0 1 .115.116v21.228a.113.113 0 0 1-.113.113h-2.837a.1.1 0 0 1-.073-.028.1.1 0 0 1-.036-.07l-.34-3.03a.055.055 0 0 0-.08-.043.06.06 0 0 0-.023.026m-8.515-4.948c-.01 2.726 1.125 5.266 4.252 5.278 3.127.009 4.28-2.521 4.29-5.25s-1.127-5.266-4.254-5.278-4.279 2.521-4.288 5.25M23.941 2.763h3.915a.063.063 0 0 1 .06.056q.002.015-.003.029l-7.78 19.727a.06.06 0 0 1-.056.04h-3.915a.06.06 0 0 1-.05-.028.06.06 0 0 1-.006-.057l7.779-19.727a.06.06 0 0 1 .056-.04m-8.152 9.71h-3.561a.14.14 0 0 1-.089-.033.13.13 0 0 1-.045-.082c-.217-1.533-.899-2.889-2.448-3.36-2.618-.798-5.169.482-5.668 3.286q-.408 2.295.147 4.2c.627 2.16 2.686 3.01 4.778 2.72 2.026-.279 2.87-1.663 3.208-3.522a.13.13 0 0 1 .13-.107h3.582a.12.12 0 0 1 .118.128c-.19 2.51-1.259 4.733-3.542 5.858-2.565 1.266-6.548 1.288-9.011-.2Q.96 19.896.298 16.939a12.8 12.8 0 0 1-.147-4.716c.64-4.263 3.86-6.556 8.002-6.577 4.26-.022 7.513 2.212 7.754 6.704a.12.12 0 0 1-.032.087.12.12 0 0 1-.086.037m21.862-1.198a.06.06 0 0 1-.034.061l-.024.005h-3.521a.15.15 0 0 1-.142-.1 5 5 0 0 1-.107-.347c-.547-1.987-3.165-1.987-4.728-1.672a.083.083 0 0 1-.092-.112l1.127-2.858a.16.16 0 0 1 .145-.1c3.602-.058 6.833 1.079 7.376 5.123m30.947 4.745c.243 1.986 1.387 3.477 3.366 3.828 1.906.34 3.96 0 4.784-1.95a.14.14 0 0 1 .052-.063.14.14 0 0 1 .08-.023h3.693a.12.12 0 0 1 .097.05.12.12 0 0 1 .016.108q-1.334 4.045-5.493 4.803-2.262.411-4.282.024c-4.656-.892-6.126-4.416-5.947-8.824.137-3.398 1.9-6.415 5.266-7.413q2.77-.819 5.595-.043c2.916.803 4.69 3.434 5.02 6.29a17.3 17.3 0 0 1 .08 3.046.064.064 0 0 1-.064.06H68.694a.1.1 0 0 0-.072.032.1.1 0 0 0-.024.075m.154-3h8.407a.1.1 0 0 0 .073-.032.1.1 0 0 0 .025-.077c-.275-2.843-2.297-4.224-5.06-3.784-2.016.32-3.27 1.832-3.556 3.763a.113.113 0 0 0 .111.13m-24.74-6.485h-3.514a.096.096 0 0 0-.096.096v15.813c0 .053.043.096.096.096h3.514a.096.096 0 0 0 .096-.096V6.632a.096.096 0 0 0-.096-.096M27.188 17.378q.44 1.89 2.119 2.308c1.681.42 5.378.549 5-2.18-.112-.812-1.398-1.169-2.133-1.297-1.85-.324-3.704-.482-5.427-1.078a.104.104 0 0 1-.062-.136l1.174-2.98a.1.1 0 0 1 .025-.03q.105-.061.217.068c.256.306 1.496.583 1.758.624q2.928.46 3.64.598c1.257.243 2.739.7 3.576 1.656 1.281 1.465 1.15 4.22-.029 5.726-2.13 2.721-6.681 2.69-9.697 1.816q-1.715-.497-2.798-1.784a.2.2 0 0 1-.034-.201l1.227-3.113a.16.16 0 0 1 .15-.102h1.162a.135.135 0 0 1 .132.105"></path></svg>